P3
# Created by IrfanView
100 40
255
255 255 255 255 255 255 255 255 255 255 255 255 255 255 255 
255 255 255 255 255 255 255 255 255 255 255 255 255 255 255 
255 255 255 255 255 255 255 255 255 255 255 255 255 255 255 
255 255 255 255 255 255 255 255 255 255 255 255 255 255 255 
255 255 255 255 255 255 255 255 255 255 255 255 255 255 255 
255 255 255 255 255 255 255 255 255 255 255 255 255 255 255 
255 255 255 255 255 255 255 255 255 255 255 255 255 255 255 
255 255 255 255 255 255 255 255 255 255 255 255 255 255 255 
255 255 255 255 255 255 255 255 255 255 255 255 255 255 255 
255 255 255 255 255 255 255 255 255 255 255 255 255 255 255 
255 255 255 255 255 255 255 255 255 255 255 255 255 255 255 
255 255 255 255 255 255 255 255 255 255 255 255 255 255 255 
255 255 255 255 255 255 255 255 255 255 255 255 255 255 255 
255 255 255 255 255 255 255 255 255 255 255 255 255 255 255 
255 255 255 255 255 255 255 255 255 255 255 255 255 255 255 
255 255 255 255 255 255 255 255 255 255 255 255 255 255 255 
255 255 255 255 255 255 255 255 255 255 255 255 255 255 255 
255 255 255 255 255 255 255 255 255 255 255 255 255 255 255 
255 255 255 255 255 255 255 255 255 255 255 255 255 255 255 
255 255 255 255 255 255 255 255 255 255 255 255 255 255 255 
255 255 255 255 255 255 255 255 255 255 255 255 255 255 255 
255 255 255 255 255 255 255 255 255 255 255 255 255 255 255 
255 255 255 255 255 255 255 255 255 255 255 255 255 255 255 
255 255 255 255 255 255 255 255 255 255 255 255 255 255 255 
255 255 255 255 255 255 255 255 255 255 255 255 255 255 255 
255 255 255 255 255 255 255 255 255 255 255 255 255 255 255 
255 255 255 255 255 255 255 255 255 255 255 255 255 255 255 
255 255 255 255 255 255 255 255 255 255 255 255 255 255 255 
255 255 255 255 255 255 255 255 255 255 255 255 255 255 255 
255 255 255 255 255 255 255 255 255 255 255 255 255 255 255 
255 255 255 255 255 255 255 255 255 255 255 255 255 255 255 
255 255 255 255 255 255 255 255 255 255 255 255 255 255 255 
255 255 255 255 255 255 255 255 255 255 255 255 255 255 255 
255 255 255 255 255 255 255 255 255 255 255 255 255 255 255 
255 255 255 255 255 255 255 255 255 255 255 255 255 255 255 
255 255 255 255 255 255 255 255 255 255 255 255 255 255 255 
255 255 255 255 255 255 255 255 255 255 255 255 255 255 255 
255 255 255 255 255 255 255 255 255 255 255 255 255 255 255 
255 255 255 255 255 255 255 255 255 255 255 255 255 255 255 
255 255 255 255 255 255 255 255 255 255 255 255 255 255 255 
255 255 255 255 255 255 255 255 255 255 255 255 255 255 255 
255 255 255 255 255 255 255 255 255 255 255 255 255 255 255 
255 255 255 255 255 255 255 255 255 255 255 255 255 255 255 
255 255 255 255 255 255 255 255 255 255 255 255 255 255 255 
255 255 255 255 255 255 255 255 255 255 255 255 255 255 255 
255 255 255 255 255 255 255 255 255 255 255 255 255 255 255 
255 255 255 255 255 255 255 255 255 255 255 255 255 255 255 
255 255 255 255 255 255 255 255 255 255 255 255 255 255 255 
255 255 255 255 255 255 255 255 255 255 255 255 255 255 255 
255 255 255 255 255 255 255 255 255 255 255 255 255 255 255 
255 255 255 255 255 255 255 255 255 255 255 255 255 255 255 
255 255 255 255 255 255 255 255 255 255 255 255 255 255 255 
255 255 255 255 255 255 255 255 255 255 255 255 255 255 255 
255 255 255 255 255 255 255 255 255 255 255 255 255 255 255 
255 255 255 255 255 255 255 255 255 255 255 255 255 255 255 
255 255 255 255 255 255 255 255 255 255 255 255 255 255 255 
255 255 255 255 255 255 255 255 255 255 255 255 255 255 255 
255 255 255 255 255 255 255 255 255 255 255 255 255 255 255 
255 255 255 255 255 255 255 255 255 255 255 255 255 255 255 
255 255 255 255 255 255 255 255 255 255 255 255 255 255 255 
255 255 255 255 255 255 255 255 255 255 255 255 255 255 255 
255 255 255 255 255 255 255 255 255 255 255 255 255 255 255 
255 255 255 255 255 255 255 255 255 255 255 255 255 255 255 
255 255 255 255 255 255 255 255 255 255 255 255 255 255 255 
255 255 255 255 255 255 255 255 255 255 255 255 255 255 255 
255 255 255 255 255 255 255 255 255 255 255 255 255 255 255 
255 255 255 255 255 255 255 255 255 255 255 255 255 255 255 
255 255 255 255 255 255 255 255 255 255 255 255 255 255 255 
255 255 255 255 255 255 254 254 254 253 253 253 250 250 250 
244 244 244 239 239 239 237 237 237 235 235 235 234 234 234 
234 234 234 234 234 234 235 235 235 235 235 235 237 237 237 
242 242 242 248 248 248 252 252 252 254 254 254 255 255 255 
255 255 255 255 255 255 255 255 255 255 255 255 255 255 255 
255 255 255 255 255 255 255 255 255 255 255 255 255 255 255 
255 255 255 255 255 255 255 255 255 255 255 255 255 255 255 
255 255 255 255 255 255 255 255 255 255 255 255 255 255 255 
255 255 255 255 255 255 255 255 255 255 255 255 255 255 255 
255 255 255 255 255 255 255 255 255 255 255 255 255 255 255 
255 255 255 255 255 255 255 255 255 255 255 255 255 255 255 
255 255 255 255 255 255 255 255 255 255 255 255 255 255 255 
255 255 255 255 255 255 255 255 255 255 255 255 255 255 255 
255 255 255 255 255 255 255 255 255 255 255 255 255 255 255 
255 255 255 255 255 255 255 255 255 255 255 255 255 255 255 
255 255 255 255 255 255 255 255 255 255 255 255 255 255 255 
255 255 255 255 255 255 255 255 255 255 255 255 255 255 255 
255 255 255 255 255 255 255 255 255 255 255 255 255 255 255 
255 255 255 255 255 255 255 255 255 255 255 255 255 255 255 
254 254 254 249 249 249 239 239 239 234 233 234 244 243 244 
252 252 252 254 253 254 254 253 254 254 253 254 254 253 254 
254 253 254 254 253 254 254 253 254 254 253 254 254 253 254 
254 253 254 254 253 254 254 253 254 254 253 254 254 253 254 
254 253 254 254 253 254 254 253 254 254 253 254 254 253 254 
252 251 252 243 242 243 229 229 229 233 233 233 246 246 246 
253 253 253 255 255 255 255 255 255 255 255 255 255 255 255 
255 255 255 255 255 255 255 255 255 255 255 255 255 255 255 
255 255 255 255 255 255 255 255 255 255 255 255 255 255 255 
255 255 255 255 255 255 255 255 255 255 255 255 255 255 255 
255 255 255 255 255 255 255 255 255 255 255 255 255 255 255 
255 255 255 255 255 255 255 255 255 255 255 255 255 255 255 
255 255 255 255 255 255 255 255 255 255 255 255 255 255 255 
255 255 255 255 255 255 255 255 255 255 255 255 255 255 255 
255 255 255 255 255 255 255 255 255 255 255 255 255 255 255 
255 255 255 255 255 255 255 255 255 255 255 255 255 255 255 
255 255 255 255 255 255 255 255 255 255 255 255 255 255 255 
255 255 255 255 255 255 255 255 255 255 255 255 255 255 255 
255 255 255 255 255 255 255 255 255 255 255 255 255 255 255 
255 255 255 254 254 254 245 245 245 233 233 233 249 249 249 
253 253 253 253 253 253 253 253 253 253 253 253 253 253 253 
253 253 253 253 253 253 253 253 253 253 253 253 253 253 253 
253 253 253 253 253 253 253 253 253 253 253 253 253 253 253 
253 253 253 253 253 253 253 253 253 253 253 253 253 253 253 
253 253 253 253 253 253 253 253 253 253 253 253 253 253 253 
253 253 253 253 253 253 253 253 253 253 253 253 253 253 253 
253 253 253 250 249 250 225 225 225 237 237 237 253 253 253 
255 255 255 255 255 255 255 255 255 255 255 255 255 255 255 
255 255 255 255 255 255 255 255 255 255 255 255 255 255 255 
255 255 255 255 255 255 255 255 255 255 255 255 255 255 255 
255 255 255 255 255 255 255 255 255 255 255 255 255 255 255 
255 255 255 255 255 255 255 255 255 255 255 255 255 255 255 
255 255 255 255 255 255 255 255 255 255 255 255 255 255 255 
255 255 255 255 255 255 255 255 255 255 255 255 255 255 255 
255 255 255 255 255 255 255 255 255 255 255 255 255 255 255 
255 255 255 255 255 255 255 255 255 255 255 255 255 255 255 
255 255 255 255 255 255 255 255 255 255 255 255 255 255 255 
255 255 255 255 255 255 255 255 255 255 255 255 255 255 255 
255 255 255 255 255 255 255 255 255 252 252 252 233 233 233 
248 248 248 252 252 252 252 252 252 252 252 252 252 252 252 
252 252 252 252 252 252 252 252 252 252 252 252 252 252 252 
251 252 251 249 251 249 223 242 220 160 220 150 92 196 75 
61 186 41 58 186 38 60 187 40 61 188 41 61 188 41 
61 189 41 61 188 41 61 188 41 60 187 40 59 186 39 
60 185 40 89 195 72 154 217 144 218 240 215 249 251 248 
251 252 251 252 252 252 252 252 252 252 252 252 252 252 252 
252 252 252 252 252 252 252 252 252 252 252 252 252 252 252 
247 248 247 223 223 223 249 249 249 254 254 254 255 255 255 
255 255 255 255 255 255 255 255 255 255 255 255 255 255 255 
255 255 255 255 255 255 255 255 255 255 255 255 255 255 255 
255 255 255 255 255 255 255 255 255 255 255 255 255 255 255 
255 255 255 255 255 255 255 255 255 255 255 255 255 255 255 
255 255 255 255 255 255 255 255 255 255 255 255 255 255 255 
255 255 255 255 255 255 255 255 255 255 255 255 255 255 255 
255 255 255 255 255 255 255 255 255 255 255 255 255 255 255 
255 255 255 255 255 255 255 255 255 255 255 255 255 255 255 
255 255 255 255 255 255 255 255 255 255 255 255 255 255 255 
255 255 255 255 255 255 255 255 255 255 255 255 255 255 255 
253 253 253 236 236 236 247 247 246 251 251 251 251 252 251 
252 252 251 252 252 251 252 252 251 252 252 251 252 252 251 
251 252 251 222 241 219 104 198 90 60 185 41 58 185 38 
59 186 39 60 187 40 61 188 41 62 190 41 63 191 42 
63 190 42 62 188 42 62 189 43 63 189 42 63 190 42 
62 189 42 62 190 42 63 190 43 62 189 42 62 189 43 
62 190 42 63 191 42 62 190 41 62 189 41 60 187 40 
59 186 39 58 186 39 60 185 41 98 197 83 216 239 212 
251 251 250 252 252 252 252 252 252 252 252 251 252 252 252 
252 252 251 252 252 252 252 252 251 247 247 246 224 224 224 
251 251 251 255 255 255 255 255 255 255 255 255 255 255 255 
255 255 255 255 255 255 255 255 255 255 255 255 255 255 255 
255 255 255 255 255 255 255 255 255 255 255 255 255 255 255 
255 255 255 255 255 255 255 255 255 255 255 255 255 255 255 
255 255 255 255 255 255 255 255 255 255 255 255 255 255 255 
255 255 255 255 255 255 255 255 255 255 255 255 255 255 255 
255 255 255 255 255 255 255 255 255 255 255 255 255 255 255 
255 255 255 255 255 255 255 255 255 255 255 255 255 255 255 
255 255 255 255 255 255 255 255 255 255 255 255 255 255 255 
255 255 255 255 255 255 255 255 255 251 251 251 237 237 236 
249 249 249 250 249 250 250 249 249 250 250 249 250 250 250 
250 250 250 250 249 250 239 246 238 113 200 100 55 180 36 
54 182 35 56 184 37 57 185 38 58 186 39 59 186 39 
59 186 39 59 187 39 60 187 40 60 187 40 59 187 39 
60 187 40 60 188 40 60 188 40 61 188 41 60 188 40 
61 188 40 61 188 41 60 188 40 60 188 40 60 187 40 
60 187 40 60 187 40 59 187 39 60 187 40 60 187 40 
59 187 39 59 186 39 59 186 39 58 186 39 57 184 37 
55 183 36 53 181 35 103 197 89 236 245 235 250 249 250 
249 249 249 249 249 249 249 249 249 249 249 249 249 249 249 
249 249 249 229 229 229 245 245 245 255 255 255 255 255 255 
255 255 255 255 255 255 255 255 255 255 255 255 255 255 255 
255 255 255 255 255 255 255 255 255 255 255 255 255 255 255 
255 255 255 255 255 255 255 255 255 255 255 255 255 255 255 
255 255 255 255 255 255 255 255 255 255 255 255 255 255 255 
255 255 255 255 255 255 255 255 255 255 255 255 255 255 255 
255 255 255 255 255 255 255 255 255 255 255 255 255 255 255 
255 255 255 255 255 255 255 255 255 255 255 255 255 255 255 
255 255 255 255 255 255 255 255 255 255 255 255 255 255 255 
255 255 255 252 252 252 236 236 236 248 248 248 248 248 248 
248 248 248 248 248 248 248 248 248 248 248 248 244 246 244 
124 201 114 48 175 31 51 178 33 53 180 36 53 181 36 
53 181 36 54 182 36 54 182 36 54 182 36 55 183 36 
55 183 36 55 183 36 55 183 36 55 183 36 55 183 36 
55 183 36 55 183 36 55 183 36 55 183 36 55 183 36 
55 183 36 55 183 36 55 183 36 55 183 36 55 183 36 
55 183 36 55 183 36 55 183 36 55 183 36 55 183 36 
55 183 36 55 183 36 54 182 36 54 182 36 54 182 36 
54 182 36 53 181 36 53 181 36 51 179 33 49 176 32 
114 199 103 241 245 240 248 248 248 248 248 248 248 248 248 
248 248 248 248 248 248 247 247 247 229 229 229 245 245 245 
255 255 255 255 255 255 255 255 255 255 255 255 255 255 255 
255 255 255 255 255 255 255 255 255 255 255 255 255 255 255 
255 255 255 255 255 255 255 255 255 255 255 255 255 255 255 
255 255 255 255 255 255 255 255 255 255 255 255 255 255 255 
255 255 255 255 255 255 255 255 255 255 255 255 255 255 255 
255 255 255 255 255 255 255 255 255 255 255 255 255 255 255 
255 255 255 255 255 255 255 255 255 255 255 255 255 255 255 
255 255 255 255 255 255 255 255 255 255 255 255 254 254 254 
238 238 238 246 246 246 247 247 247 247 247 247 247 247 247 
247 247 247 247 247 247 229 240 228 77 182 63 44 171 28 
47 174 31 48 175 32 49 176 32 49 176 32 49 177 33 
50 177 33 51 178 34 51 179 34 51 179 34 51 178 34 
51 179 34 51 179 34 51 178 34 51 179 34 51 179 34 
51 179 34 51 178 34 51 179 34 51 179 34 51 178 34 
51 179 34 51 179 34 51 179 34 51 178 34 51 179 34 
51 179 34 51 179 34 51 179 34 50 178 34 51 179 34 
51 179 34 51 179 34 51 179 34 51 179 34 51 178 34 
50 177 34 50 177 33 50 177 33 49 176 32 48 175 32 
47 174 31 45 172 29 71 180 56 223 238 221 247 247 247 
247 247 247 247 247 247 247 247 247 247 247 247 245 245 245 
225 225 225 252 252 252 255 255 255 255 255 255 255 255 255 
255 255 255 255 255 255 255 255 255 255 255 255 255 255 255 
255 255 255 255 255 255 255 255 255 255 255 255 255 255 255 
255 255 255 255 255 255 255 255 255 255 255 255 255 255 255 
255 255 255 255 255 255 255 255 255 255 255 255 255 255 255 
255 255 255 255 255 255 255 255 255 255 255 255 255 255 255 
255 255 255 255 255 255 255 255 255 255 255 255 255 255 255 
255 255 255 255 255 255 255 255 255 252 252 252 238 238 238 
246 246 246 246 246 246 246 246 246 246 246 246 246 246 246 
238 243 238 86 182 75 39 166 25 42 169 27 44 171 28 
44 171 28 44 172 29 44 172 29 45 173 29 45 173 30 
45 173 30 45 173 30 45 173 30 45 173 30 45 173 30 
45 173 30 45 173 29 45 173 30 45 173 30 45 173 30 
45 173 30 45 173 30 45 173 30 45 173 30 45 173 30 
45 173 30 45 173 30 45 173 30 45 173 30 45 173 30 
45 173 30 45 173 30 45 173 30 45 173 30 45 173 30 
46 173 30 45 173 30 45 173 30 46 173 30 45 173 30 
45 173 30 45 173 30 45 173 29 44 172 29 44 172 29 
44 171 28 44 171 28 43 170 27 40 168 26 73 178 61 
236 242 235 246 246 246 246 246 246 246 246 246 246 246 246 
246 246 246 231 231 231 245 245 245 255 255 255 255 255 255 
255 255 255 255 255 255 255 255 255 255 255 255 255 255 255 
255 255 255 255 255 255 255 255 255 255 255 255 255 255 255 
255 255 255 255 255 255 255 255 255 255 255 255 255 255 255 
255 255 255 255 255 255 255 255 255 255 255 255 255 255 255 
255 255 255 255 255 255 255 255 255 255 255 255 255 255 255 
255 255 255 255 255 255 255 255 255 255 255 255 255 255 255 
255 255 255 255 255 255 248 248 248 239 239 239 244 244 244 
244 244 244 244 244 244 244 244 244 244 244 244 185 220 181 
33 159 19 36 163 22 38 166 24 38 166 25 39 167 25 
39 167 25 40 168 26 41 168 26 41 168 26 41 168 26 
41 168 26 74 182 67 230 244 229 254 254 254 254 254 254 
254 254 254 202 233 201 37 167 25 41 168 27 41 168 27 
41 168 27 41 168 26 41 168 26 41 168 27 41 168 27 
41 168 26 41 168 26 41 168 27 41 168 27 41 168 27 
41 168 27 41 168 26 41 168 26 41 168 27 41 168 27 
41 168 26 41 168 26 41 168 26 41 168 27 41 168 26 
41 168 27 41 168 27 41 168 27 41 168 26 41 168 27 
40 167 25 39 167 25 39 166 25 39 166 25 37 164 23 
34 160 20 172 216 167 244 244 244 244 244 244 244 244 244 
244 244 244 244 244 244 236 236 236 239 239 239 254 254 254 
255 255 255 255 255 255 255 255 255 255 255 255 255 255 255 
255 255 255 255 255 255 255 255 255 255 255 255 255 255 255 
255 255 255 255 255 255 255 255 255 255 255 255 255 255 255 
255 255 255 255 255 255 255 255 255 255 255 255 255 255 255 
255 255 255 255 255 255 255 255 255 255 255 255 255 255 255 
255 255 255 255 255 255 255 255 255 255 255 255 255 255 255 
255 255 255 249 249 249 238 238 238 243 243 243 243 243 243 
243 243 243 243 243 243 243 243 243 111 188 105 29 155 17 
32 159 20 35 161 21 35 161 22 36 162 22 36 162 22 
36 163 23 36 163 23 36 163 23 36 163 23 64 174 58 
248 251 248 253 253 253 253 253 253 253 253 253 253 253 253 
253 253 253 253 253 253 229 243 228 33 162 23 36 164 23 
36 164 23 36 164 23 36 164 23 36 164 23 36 164 23 
36 164 23 36 163 23 36 163 23 36 163 23 36 164 23 
36 164 23 36 164 23 36 164 23 36 164 23 36 163 23 
36 164 23 36 164 23 36 164 23 36 164 23 36 164 23 
36 164 23 36 164 23 36 164 23 36 164 23 36 164 23 
36 164 23 36 163 23 36 162 22 36 162 22 35 161 22 
34 160 20 31 157 18 83 177 74 243 243 243 243 243 243 
243 243 243 243 243 243 243 243 243 237 237 237 240 240 240 
255 255 255 255 255 255 255 255 255 255 255 255 255 255 255 
255 255 255 255 255 255 255 255 255 255 255 255 255 255 255 
255 255 255 255 255 255 255 255 255 255 255 255 255 255 255 
255 255 255 255 255 255 255 255 255 255 255 255 255 255 255 
255 255 255 255 255 255 255 255 255 255 255 255 255 255 255 
255 255 255 255 255 255 255 255 255 255 255 255 255 255 255 
253 253 253 236 236 236 242 242 242 242 242 242 242 242 242 
242 242 242 242 242 242 96 179 91 25 151 14 27 154 16 
29 156 18 30 157 19 30 157 19 30 158 19 31 158 19 
31 158 19 31 158 19 31 158 19 68 173 63 249 250 249 
250 250 249 250 250 249 249 250 249 250 250 249 250 250 249 
250 250 249 250 250 249 250 250 249 214 234 213 30 157 20 
31 158 19 31 158 19 31 158 19 31 158 19 31 158 19 
31 158 19 31 158 19 31 158 19 31 158 19 31 158 19 
31 158 19 31 158 19 31 158 19 31 158 19 31 158 19 
31 158 19 31 158 19 31 158 19 31 158 19 31 158 19 
31 158 19 31 158 19 31 158 19 31 158 19 31 158 19 
31 158 19 31 158 19 31 158 19 30 157 19 30 157 19 
30 156 18 28 155 17 25 152 15 79 172 71 242 242 242 
242 242 242 242 242 242 242 242 242 242 242 242 229 229 229 
248 248 248 255 255 255 255 255 255 255 255 255 255 255 255 
255 255 255 255 255 255 255 255 255 255 255 255 255 255 255 
255 255 255 255 255 255 255 255 255 255 255 255 255 255 255 
255 255 255 255 255 255 255 255 255 255 255 255 255 255 255 
255 255 255 255 255 255 255 255 255 255 255 255 255 255 255 
255 255 255 255 255 255 255 255 255 255 255 255 254 254 254 
238 238 238 240 240 240 240 240 240 240 240 240 240 240 240 
240 240 240 158 204 155 19 146 10 23 149 12 25 152 14 
26 152 15 26 153 15 27 153 16 27 154 16 27 154 16 
27 154 16 27 154 16 27 154 16 183 219 182 247 247 247 
247 247 247 247 247 247 247 247 247 247 247 247 247 247 247 
247 247 247 247 247 247 247 247 247 247 247 247 200 227 199 
28 153 18 27 154 16 27 154 16 27 154 16 27 154 16 
27 154 16 27 154 16 27 154 16 27 154 16 27 154 16 
27 154 16 27 154 16 27 154 16 27 154 16 27 154 16 
27 154 16 27 154 16 27 154 16 27 154 16 27 154 16 
27 154 16 27 154 16 27 154 16 27 154 16 27 154 16 
27 154 16 27 154 16 27 154 16 27 154 16 27 153 16 
27 153 16 25 152 15 23 150 12 20 147 11 133 194 130 
240 240 240 240 240 240 240 240 240 240 240 240 240 240 240 
218 218 218 255 255 255 255 255 255 255 255 255 255 255 255 
255 255 255 255 255 255 255 255 255 255 255 255 255 255 255 
255 255 255 255 255 255 255 255 255 255 255 255 255 255 255 
255 255 255 255 255 255 255 255 255 255 255 255 255 255 255 
255 255 255 255 255 255 255 255 255 255 255 255 255 255 255 
255 255 255 255 255 255 255 255 255 255 255 255 252 252 252 
236 236 236 239 239 239 239 239 239 239 239 239 239 239 239 
232 236 232 26 144 19 17 144 8 20 147 11 21 148 11 
21 149 12 22 149 12 23 150 13 23 150 13 23 150 13 
23 150 13 23 150 13 23 150 13 157 205 156 244 244 244 
244 244 244 244 244 244 244 244 244 244 244 244 244 244 244 
244 244 244 244 244 244 244 244 244 244 244 244 218 233 217 
32 152 24 23 150 13 23 150 13 23 150 13 23 150 13 
23 150 13 23 150 13 23 150 13 23 150 13 23 150 13 
23 150 13 23 150 13 23 150 13 23 150 13 23 150 13 
23 150 13 23 150 13 23 150 13 23 150 13 23 150 13 
23 150 13 23 150 13 23 150 13 23 150 13 23 150 13 
23 150 13 23 150 13 23 150 13 23 150 13 23 150 13 
21 149 12 21 148 11 20 148 11 18 145 9 26 145 19 
224 233 224 239 239 239 239 239 239 239 239 239 239 239 239 
235 235 235 243 243 243 255 255 255 255 255 255 255 255 255 
255 255 255 255 255 255 255 255 255 255 255 255 255 255 255 
255 255 255 255 255 255 255 255 255 255 255 255 255 255 255 
255 255 255 255 255 255 255 255 255 255 255 255 255 255 255 
255 255 255 255 255 255 255 255 255 255 255 255 255 255 255 
255 255 255 255 255 255 255 255 255 255 255 255 245 245 245 
238 238 238 238 238 238 238 238 238 238 238 238 238 238 238 
155 201 154 12 137 4 15 140 7 18 144 9 19 144 10 
19 145 10 19 146 11 19 146 11 19 146 11 19 146 11 
19 146 11 19 146 11 19 146 11 34 150 28 234 238 234 
241 241 241 241 241 241 241 241 241 241 241 241 241 241 241 
241 241 241 241 241 241 236 239 236 94 176 91 19 146 10 
19 146 11 19 146 11 19 146 11 19 146 11 19 146 11 
19 146 11 19 146 11 19 146 11 19 146 11 19 146 11 
19 146 11 19 146 11 19 146 11 19 146 11 19 146 11 
19 146 11 19 146 11 19 146 11 19 146 11 19 146 11 
19 146 11 19 146 11 19 146 11 19 146 11 19 146 11 
19 146 11 19 146 11 19 146 11 19 146 11 19 146 11 
19 145 10 19 145 10 18 144 9 16 142 7 13 138 5 
134 192 133 238 238 238 238 238 238 238 238 238 238 238 238 
238 238 238 222 223 222 255 255 255 255 255 255 255 255 255 
255 255 255 255 255 255 255 255 255 255 255 255 255 255 255 
255 255 255 255 255 255 255 255 255 255 255 255 255 255 255 
255 255 255 255 255 255 255 255 255 255 255 255 255 255 255 
255 255 255 255 255 255 255 255 255 255 255 255 255 255 255 
255 255 255 255 255 255 255 255 255 255 255 255 237 237 237 
237 237 237 237 237 237 237 237 237 237 237 237 237 237 237 
85 168 84 9 135 2 12 138 4 15 140 6 15 141 8 
15 141 8 16 142 8 16 142 8 17 142 8 16 142 8 
16 142 8 16 142 8 16 142 8 16 142 8 39 150 33 
227 233 227 238 238 238 238 238 238 238 238 238 238 238 238 
238 238 238 237 237 237 135 192 133 16 142 8 16 142 8 
16 142 8 16 142 8 16 142 8 16 142 8 16 142 8 
16 142 8 16 142 8 16 142 8 16 142 8 16 142 8 
16 142 8 16 142 8 16 142 8 16 142 8 16 142 8 
16 142 8 16 142 8 16 142 8 16 142 8 16 142 8 
16 142 8 16 142 8 16 142 8 16 142 8 16 142 8 
16 142 8 16 142 8 16 142 8 16 142 8 16 142 8 
16 142 8 15 141 8 15 140 7 14 139 5 10 136 3 
76 164 74 237 237 237 237 237 237 237 237 237 237 237 237 
237 237 237 217 217 217 255 255 255 255 255 255 255 255 255 
255 255 255 255 255 255 255 255 255 255 255 255 255 255 255 
255 255 255 255 255 255 255 255 255 255 255 255 255 255 255 
255 255 255 255 255 255 255 255 255 255 255 255 255 255 255 
255 255 255 255 255 255 255 255 255 255 255 255 255 255 255 
255 255 255 255 255 255 255 255 255 255 255 255 235 235 235 
237 237 237 237 237 237 237 237 237 237 237 237 237 237 237 
71 160 70 7 132 0 10 135 3 12 138 4 13 139 5 
13 139 5 14 140 6 14 140 6 14 140 6 14 140 6 
14 140 6 14 140 6 14 140 6 14 140 6 14 140 6 
14 139 7 169 206 168 236 236 236 237 237 237 237 237 237 
237 237 237 237 237 237 237 237 237 225 232 224 38 147 33 
13 139 6 14 140 6 14 140 6 14 140 6 14 140 6 
14 140 6 14 140 6 14 140 6 14 140 6 14 140 6 
14 140 6 14 140 6 14 140 6 14 140 6 14 140 6 
14 140 6 14 140 6 14 140 6 14 140 6 14 140 6 
14 140 6 14 140 6 14 140 6 14 140 6 14 140 6 
14 140 6 14 140 6 14 140 6 14 140 6 14 140 6 
14 140 6 13 139 5 12 138 4 11 137 4 8 134 1 
65 158 63 237 237 237 237 237 237 237 237 237 237 237 237 
237 237 237 218 218 218 254 254 254 255 255 255 255 255 255 
255 255 255 255 255 255 255 255 255 255 255 255 255 255 255 
255 255 255 255 255 255 255 255 255 255 255 255 255 255 255 
255 255 255 255 255 255 255 255 255 255 255 255 255 255 255 
255 255 255 255 255 255 255 255 255 255 255 255 255 255 255 
255 255 255 255 255 255 255 255 255 255 255 255 239 239 239 
237 237 237 237 237 237 237 237 237 237 237 237 237 237 237 
107 178 106 8 133 1 11 137 3 14 139 6 14 140 7 
14 140 7 15 141 8 15 141 8 15 141 8 15 141 8 
15 141 8 15 141 8 16 141 8 15 141 8 15 141 8 
15 141 8 15 141 8 40 150 37 226 233 226 238 238 238 
238 238 238 238 238 238 238 238 238 238 238 238 238 238 238 
212 227 212 31 146 27 15 141 8 15 141 8 15 141 8 
15 141 8 15 141 8 15 141 8 15 141 8 15 141 8 
15 141 8 15 141 8 15 141 8 15 141 8 15 141 8 
15 141 8 15 141 8 15 141 8 15 141 8 15 141 8 
15 141 8 15 141 8 15 141 8 15 141 8 15 141 8 
15 141 8 15 141 8 15 141 8 15 141 8 15 141 8 
15 141 7 14 140 7 14 139 6 12 138 4 9 135 2 
90 171 89 237 237 237 237 237 237 237 237 237 237 237 237 
237 237 237 217 217 217 255 255 255 255 255 255 255 255 255 
255 255 255 255 255 255 255 255 255 255 255 255 255 255 255 
255 255 255 255 255 255 255 255 255 255 255 255 255 255 255 
255 255 255 255 255 255 255 255 255 255 255 255 255 255 255 
255 255 255 255 255 255 255 255 255 255 255 255 255 255 255 
255 255 255 255 255 255 255 255 255 255 255 255 248 248 248 
237 237 237 238 238 238 238 238 238 238 238 238 238 238 238 
196 220 196 12 135 5 13 139 5 16 142 8 17 142 8 
18 143 9 18 145 10 19 145 10 19 145 10 19 145 10 
19 145 10 18 145 10 19 145 10 19 145 10 19 145 10 
19 145 10 19 145 10 19 145 10 18 145 10 84 170 81 
240 241 240 241 241 241 241 241 241 241 241 241 241 241 241 
241 241 241 241 241 241 237 239 237 119 186 117 18 144 10 
19 145 10 19 145 10 19 145 10 19 145 10 18 145 10 
19 145 10 19 145 10 19 145 10 28 146 23 230 237 230 
241 241 241 222 233 222 134 193 132 27 146 21 18 145 10 
19 145 10 19 145 10 19 145 10 19 145 10 19 145 10 
19 145 10 19 145 10 19 145 10 18 145 10 19 145 10 
18 143 9 18 143 9 17 142 8 15 140 6 12 137 5 
173 209 172 238 238 238 238 238 238 238 238 238 238 238 238 
237 237 237 232 232 232 255 255 255 255 255 255 255 255 255 
255 255 255 255 255 255 255 255 255 255 255 255 255 255 255 
255 255 255 255 255 255 255 255 255 255 255 255 255 255 255 
255 255 255 255 255 255 255 255 255 255 255 255 255 255 255 
255 255 255 255 255 255 255 255 255 255 255 255 255 255 255 
255 255 255 255 255 255 255 255 255 255 255 255 254 254 254 
234 234 234 239 239 239 238 238 238 239 239 239 239 239 239 
238 238 238 49 153 45 15 141 7 19 145 10 19 146 11 
20 147 11 20 148 11 21 148 11 21 148 11 21 148 11 
21 148 11 21 148 11 21 148 11 21 148 11 21 148 11 
21 148 11 21 148 11 21 148 11 21 148 11 21 148 11 
20 148 11 88 175 84 242 243 242 244 244 244 244 244 244 
244 244 244 244 244 244 244 244 244 244 244 244 244 244 244 
243 243 243 174 212 172 51 159 45 19 147 10 21 148 11 
21 148 11 28 150 21 210 229 209 244 244 244 244 244 244 
244 244 244 244 244 244 244 244 244 244 244 244 244 244 244 
244 244 244 197 223 197 79 171 75 19 146 10 21 148 11 
21 148 11 21 148 11 21 148 11 21 148 11 21 148 11 
20 147 11 19 146 11 18 146 10 17 142 7 47 153 41 
236 238 236 239 239 239 239 239 239 239 239 239 238 238 238 
228 228 228 251 251 251 255 255 255 255 255 255 255 255 255 
255 255 255 255 255 255 255 255 255 255 255 255 255 255 255 
255 255 255 255 255 255 255 255 255 255 255 255 255 255 255 
255 255 255 255 255 255 255 255 255 255 255 255 255 255 255 
255 255 255 255 255 255 255 255 255 255 255 255 255 255 255 
255 255 255 255 255 255 255 255 255 255 255 255 255 255 255 
246 246 246 239 239 239 239 239 239 240 239 240 240 239 240 
240 240 240 225 233 224 19 143 10 20 147 11 23 150 12 
23 150 13 24 151 14 25 151 14 26 152 15 26 152 15 
26 152 15 26 152 15 26 152 15 26 152 15 26 152 15 
26 152 15 26 152 15 26 152 15 26 152 15 26 152 15 
26 152 15 26 152 15 26 152 15 41 157 33 192 223 191 
247 247 247 247 247 247 247 247 247 247 247 247 247 247 247 
247 247 247 247 247 247 247 247 247 247 247 247 247 247 247 
247 247 247 247 247 247 247 247 247 247 247 247 247 247 247 
247 247 247 247 247 247 247 247 247 247 247 247 247 247 247 
247 247 247 247 247 247 247 247 247 218 234 218 24 151 14 
26 152 15 26 152 15 26 152 15 25 152 15 24 151 14 
24 151 14 23 150 13 20 148 10 21 145 13 209 227 209 
240 239 240 240 239 240 240 240 240 240 240 240 239 239 239 
231 231 231 255 255 255 255 255 255 255 255 255 255 255 255 
255 255 255 255 255 255 255 255 255 255 255 255 255 255 255 
255 255 255 255 255 255 255 255 255 255 255 255 255 255 255 
255 255 255 255 255 255 255 255 255 255 255 255 255 255 255 
255 255 255 255 255 255 255 255 255 255 255 255 255 255 255 
255 255 255 255 255 255 255 255 255 255 255 255 255 255 255 
254 254 254 239 239 239 242 242 242 241 241 241 242 242 242 
242 242 242 241 241 241 212 230 211 23 149 13 26 153 15 
27 154 16 28 155 17 29 155 18 30 156 18 30 156 18 
30 156 18 30 156 18 30 156 18 30 156 18 30 156 18 
30 156 18 30 156 18 30 156 18 30 156 18 30 156 18 
30 156 18 30 156 18 30 156 18 30 156 18 30 156 18 
29 155 17 50 164 44 193 226 192 248 250 248 250 251 250 
250 251 250 250 250 250 250 251 250 250 251 250 250 251 250 
250 251 250 250 251 250 250 250 250 250 251 250 250 251 250 
250 251 250 250 251 250 250 251 250 250 250 250 250 250 249 
250 250 249 250 250 249 250 250 249 81 177 77 30 156 18 
30 156 18 30 156 18 29 156 18 28 155 18 28 155 17 
27 154 16 26 152 15 23 149 12 188 219 187 242 242 242 
242 242 242 242 242 242 242 242 242 242 242 242 223 223 223 
254 254 254 255 255 255 255 255 255 255 255 255 255 255 255 
255 255 255 255 255 255 255 255 255 255 255 255 255 255 255 
255 255 255 255 255 255 255 255 255 255 255 255 255 255 255 
255 255 255 255 255 255 255 255 255 255 255 255 255 255 255 
255 255 255 255 255 255 255 255 255 255 255 255 255 255 255 
255 255 255 255 255 255 255 255 255 255 255 255 255 255 255 
255 255 255 254 254 254 238 239 238 242 242 242 243 243 243 
243 243 243 243 243 243 243 243 243 224 236 223 34 157 22 
32 159 20 32 159 20 34 160 20 34 160 20 35 161 22 
35 161 22 35 161 22 35 161 22 35 161 22 35 161 22 
35 161 22 35 161 22 35 161 22 35 161 22 35 161 22 
35 161 22 35 161 22 35 161 22 35 161 22 35 161 22 
35 161 22 35 161 22 35 161 22 35 161 22 33 161 21 
44 165 37 164 216 163 236 246 236 252 252 252 253 253 253 
253 253 253 253 253 253 253 253 253 253 253 253 253 253 253 
253 253 253 253 253 253 253 253 253 253 253 253 253 253 253 
252 252 252 205 233 204 35 162 26 35 161 22 35 161 22 
35 161 22 34 160 20 34 160 20 32 159 20 32 159 20 
30 157 18 27 153 16 218 233 218 243 243 243 243 243 243 
243 243 243 243 243 243 243 243 243 226 226 226 251 251 251 
255 255 255 255 255 255 255 255 255 255 255 255 255 255 255 
255 255 255 255 255 255 255 255 255 255 255 255 255 255 255 
255 255 255 255 255 255 255 255 255 255 255 255 255 255 255 
255 255 255 255 255 255 255 255 255 255 255 255 255 255 255 
255 255 255 255 255 255 255 255 255 255 255 255 255 255 255 
255 255 255 255 255 255 255 255 255 255 255 255 255 255 255 
255 255 255 255 255 255 254 254 254 239 239 239 243 243 243 
244 244 244 244 244 244 244 244 244 244 244 244 241 243 241 
90 184 80 37 165 24 38 166 25 39 166 25 39 167 25 
39 167 25 39 167 25 39 167 25 39 167 25 39 167 25 
39 167 25 39 167 25 39 167 25 39 167 25 39 167 25 
39 167 25 39 167 25 39 167 25 39 167 25 39 167 25 
39 167 25 39 167 25 39 167 25 39 167 25 39 167 25 
39 167 25 39 167 25 39 167 25 39 167 25 39 167 25 
37 166 24 37 166 27 90 187 86 180 224 179 231 245 230 
237 248 236 211 237 210 144 209 143 52 172 45 36 166 24 
39 167 25 39 167 25 39 167 25 39 167 25 39 166 25 
38 166 25 38 165 24 37 165 24 36 162 22 34 160 20 
65 171 55 241 242 240 244 244 244 244 244 244 244 244 244 
244 244 244 243 243 243 227 227 227 253 253 253 255 255 255 
255 255 255 255 255 255 255 255 255 255 255 255 255 255 255 
255 255 255 255 255 255 255 255 255 255 255 255 255 255 255 
255 255 255 255 255 255 255 255 255 255 255 255 255 255 255 
255 255 255 255 255 255 255 255 255 255 255 255 255 255 255 
255 255 255 255 255 255 255 255 255 255 255 255 255 255 255 
255 255 255 255 255 255 255 255 255 255 255 255 255 255 255 
255 255 255 255 255 255 255 255 255 254 254 254 234 234 234 
244 244 244 245 245 245 245 245 245 245 245 245 245 245 245 
187 224 183 42 169 27 43 170 27 43 170 27 44 171 28 
44 171 28 44 171 28 44 171 28 44 171 28 44 171 28 
44 171 28 44 171 28 44 171 28 44 171 28 44 171 28 
44 171 28 44 171 28 44 171 28 44 171 28 44 171 28 
44 171 28 44 171 28 44 171 28 44 171 28 44 171 28 
44 171 28 44 171 28 44 171 28 44 171 28 44 171 28 
44 171 28 44 171 28 44 171 28 44 171 28 44 171 28 
44 171 28 44 171 28 44 171 28 44 171 28 44 171 28 
44 171 28 44 171 28 43 170 28 43 170 27 43 169 27 
42 169 27 41 168 26 39 166 25 43 165 29 209 231 206 
245 245 245 245 245 245 245 245 245 245 245 245 245 245 245 
243 242 243 231 231 231 254 254 254 255 255 255 255 255 255 
255 255 255 255 255 255 255 255 255 255 255 255 255 255 255 
255 255 255 255 255 255 255 255 255 255 255 255 255 255 255 
255 255 255 255 255 255 255 255 255 255 255 255 255 255 255 
255 255 255 255 255 255 255 255 255 255 255 255 255 255 255 
255 255 255 255 255 255 255 255 255 255 255 255 255 255 255 
255 255 255 255 255 255 255 255 255 255 255 255 255 255 255 
255 255 255 255 255 255 255 255 255 240 240 240 244 244 244 
246 246 246 246 246 246 246 246 246 246 246 246 228 240 227 
50 173 34 47 174 31 47 174 31 48 175 32 48 175 32 
48 175 32 49 176 32 49 176 32 49 176 32 49 176 32 
49 176 32 49 176 32 49 176 32 49 176 32 49 176 32 
49 176 32 49 176 32 49 176 32 49 176 32 49 176 32 
49 176 32 49 176 32 49 176 32 49 176 32 49 176 32 
49 176 32 49 176 32 49 176 32 49 176 32 49 176 32 
49 176 32 49 176 32 49 176 32 49 176 32 49 176 32 
49 176 32 49 176 32 49 176 32 49 176 32 48 175 32 
48 175 32 48 175 32 47 174 31 47 174 31 45 172 29 
43 170 27 57 173 43 208 232 205 246 246 246 246 246 246 
246 246 246 246 246 246 246 246 246 246 246 246 233 233 233 
247 247 247 255 255 255 255 255 255 255 255 255 255 255 255 
255 255 255 255 255 255 255 255 255 255 255 255 255 255 255 
255 255 255 255 255 255 255 255 255 255 255 255 255 255 255 
255 255 255 255 255 255 255 255 255 255 255 255 255 255 255 
255 255 255 255 255 255 255 255 255 255 255 255 255 255 255 
255 255 255 255 255 255 255 255 255 255 255 255 255 255 255 
255 255 255 255 255 255 255 255 255 255 255 255 255 255 255 
255 255 255 255 255 255 247 247 247 241 241 241 248 248 248 
248 248 248 248 248 248 248 248 248 245 246 244 72 182 57 
49 176 32 51 178 33 52 179 35 52 180 35 53 180 36 
53 180 36 53 180 36 53 180 36 53 181 36 53 180 36 
53 180 36 53 180 36 53 180 36 53 180 36 53 181 36 
53 181 36 53 181 36 53 181 36 53 181 36 53 181 36 
53 181 36 53 181 36 53 181 36 53 181 36 53 181 36 
53 181 36 53 181 36 53 181 36 53 181 36 54 182 36 
53 181 36 53 181 36 53 181 36 53 181 36 53 181 36 
53 181 36 53 180 36 53 180 36 53 180 36 52 180 35 
52 180 35 51 178 33 49 176 32 46 173 30 130 203 120 
242 246 241 248 248 248 248 248 248 248 248 248 248 248 248 
248 248 248 248 248 248 238 238 238 240 240 240 255 255 255 
255 255 255 255 255 255 255 255 255 255 255 255 255 255 255 
255 255 255 255 255 255 255 255 255 255 255 255 255 255 255 
255 255 255 255 255 255 255 255 255 255 255 255 255 255 255 
255 255 255 255 255 255 255 255 255 255 255 255 255 255 255 
255 255 255 255 255 255 255 255 255 255 255 255 255 255 255 
255 255 255 255 255 255 255 255 255 255 255 255 255 255 255 
255 255 255 255 255 255 255 255 255 255 255 255 255 255 255 
255 255 255 252 252 252 237 237 237 249 249 249 249 249 249 
249 249 249 249 249 249 249 249 249 116 197 105 45 172 28 
50 177 32 52 179 34 53 181 36 54 182 36 54 182 35 
59 184 41 92 195 77 152 216 142 216 238 212 175 223 167 
74 189 56 55 183 36 55 183 36 57 184 37 57 184 37 
57 184 37 57 184 37 57 184 37 57 185 38 58 186 39 
57 185 39 58 185 38 58 186 39 58 186 39 58 185 38 
58 186 39 58 185 38 58 185 38 57 185 38 57 185 38 
57 185 38 58 185 38 57 185 38 57 184 37 57 184 37 
57 184 37 56 183 36 54 182 36 53 181 35 52 179 34 
64 182 47 161 217 153 245 247 245 249 249 249 249 249 249 
249 249 249 249 249 249 249 249 249 249 249 249 248 249 248 
234 234 234 244 244 244 255 255 255 255 255 255 255 255 255 
255 255 255 255 255 255 255 255 255 255 255 255 255 255 255 
255 255 255 255 255 255 255 255 255 255 255 255 255 255 255 
255 255 255 255 255 255 255 255 255 255 255 255 255 255 255 
255 255 255 255 255 255 255 255 255 255 255 255 255 255 255 
255 255 255 255 255 255 255 255 255 255 255 255 255 255 255 
255 255 255 255 255 255 255 255 255 255 255 255 255 255 255 
255 255 255 255 255 255 255 255 255 255 255 255 255 255 255 
254 254 254 236 236 236 251 251 250 251 251 250 251 251 250 
251 251 250 251 251 250 177 218 174 40 161 25 87 184 74 
164 217 157 234 244 232 249 250 248 251 251 250 251 251 250 
251 251 250 251 251 250 251 251 250 251 251 250 251 251 250 
251 251 250 251 251 250 250 250 249 214 238 210 119 204 105 
67 186 49 56 183 36 56 184 37 57 185 38 58 185 38 
59 186 39 59 186 39 60 187 40 60 187 40 60 187 40 
60 187 40 60 187 40 60 187 40 60 187 40 59 187 39 
59 186 39 58 186 39 57 185 38 56 184 37 55 183 36 
65 185 47 113 201 100 207 235 202 249 250 248 251 251 250 
251 251 250 251 251 250 251 251 250 251 251 250 251 251 250 
251 251 250 250 251 249 243 243 242 233 233 233 252 252 252 
255 255 255 255 255 255 255 255 255 255 255 255 255 255 255 
255 255 255 255 255 255 255 255 255 255 255 255 255 255 255 
255 255 255 255 255 255 255 255 255 255 255 255 255 255 255 
255 255 255 255 255 255 255 255 255 255 255 255 255 255 255 
255 255 255 255 255 255 255 255 255 255 255 255 255 255 255 
255 255 255 255 255 255 255 255 255 255 255 255 255 255 255 
255 255 255 255 255 255 255 255 255 255 255 255 255 255 255 
255 255 255 255 255 255 255 255 255 255 255 255 254 254 254 
239 239 239 251 251 251 252 252 252 252 252 252 252 252 252 
252 252 252 252 252 252 252 252 252 252 252 252 252 252 252 
252 252 252 252 252 252 252 252 252 252 252 252 252 252 252 
252 252 252 252 252 252 252 252 252 252 252 252 252 252 252 
252 252 252 252 252 252 252 252 252 252 252 252 252 252 252 
252 252 252 252 252 252 252 252 252 252 252 252 251 252 251 
248 250 248 242 248 241 219 240 216 198 232 192 184 228 177 
181 227 173 183 227 177 197 232 191 218 239 214 240 248 239 
248 250 248 251 252 251 252 252 252 252 252 252 252 252 252 
252 252 252 252 252 252 252 252 252 252 252 252 252 252 252 
252 252 252 252 252 252 252 252 252 251 251 251 240 240 240 
234 234 234 253 253 253 255 255 255 255 255 255 255 255 255 
255 255 255 255 255 255 255 255 255 255 255 255 255 255 255 
255 255 255 255 255 255 255 255 255 255 255 255 255 255 255 
255 255 255 255 255 255 255 255 255 255 255 255 255 255 255 
255 255 255 255 255 255 255 255 255 255 255 255 255 255 255 
255 255 255 255 255 255 255 255 255 255 255 255 255 255 255 
255 255 255 255 255 255 255 255 255 255 255 255 255 255 255 
255 255 255 255 255 255 255 255 255 255 255 255 255 255 255 
255 255 255 255 255 255 255 255 255 255 255 255 246 246 246 
249 249 249 253 253 253 253 253 253 253 253 253 253 253 253 
253 253 253 253 253 253 253 253 253 253 253 253 253 253 253 
253 253 253 253 253 253 253 253 253 247 247 247 230 230 230 
227 227 227 246 246 246 253 253 253 254 254 254 244 244 244 
237 237 237 251 251 251 253 253 253 253 253 253 253 253 253 
253 253 253 253 253 253 253 253 253 253 253 253 253 253 253 
253 253 253 253 253 253 253 253 253 253 253 253 253 253 253 
253 253 253 253 253 253 253 253 253 253 253 253 253 253 253 
253 253 253 253 253 253 253 253 253 253 253 253 253 253 253 
253 253 253 253 253 253 253 253 253 253 253 253 251 251 251 
234 234 234 238 238 238 253 253 253 254 254 254 255 255 255 
255 255 255 255 255 255 255 255 255 255 255 255 255 255 255 
255 255 255 255 255 255 255 255 255 255 255 255 255 255 255 
255 255 255 255 255 255 255 255 255 255 255 255 255 255 255 
255 255 255 255 255 255 255 255 255 255 255 255 255 255 255 
255 255 255 255 255 255 255 255 255 255 255 255 255 255 255 
255 255 255 255 255 255 255 255 255 255 255 255 255 255 255 
255 255 255 255 255 255 255 255 255 255 255 255 255 255 255 
255 255 255 255 255 255 255 255 255 255 255 255 255 255 255 
255 255 255 255 255 255 255 255 255 253 253 253 241 240 241 
254 253 254 254 253 254 254 253 254 254 253 254 254 253 254 
254 253 254 246 245 246 230 229 230 233 232 233 244 244 244 
252 252 252 254 254 254 255 255 255 255 255 255 255 255 255 
255 255 255 255 255 255 255 255 255 255 255 255 255 255 255 
255 255 255 255 255 255 254 254 254 253 253 253 249 249 249 
242 242 242 236 236 236 241 241 241 249 248 249 254 253 254 
254 253 254 254 253 254 254 253 254 254 253 254 254 253 254 
254 253 254 254 253 254 254 253 254 254 253 254 254 253 254 
254 253 254 254 253 254 249 248 249 241 240 241 234 233 234 
238 238 238 247 247 247 252 252 252 254 254 254 255 255 255 
255 255 255 255 255 255 255 255 255 255 255 255 255 255 255 
255 255 255 255 255 255 255 255 255 255 255 255 255 255 255 
255 255 255 255 255 255 255 255 255 255 255 255 255 255 255 
255 255 255 255 255 255 255 255 255 255 255 255 255 255 255 
255 255 255 255 255 255 255 255 255 255 255 255 255 255 255 
255 255 255 255 255 255 255 255 255 255 255 255 255 255 255 
255 255 255 255 255 255 255 255 255 255 255 255 255 255 255 
255 255 255 255 255 255 255 255 255 255 255 255 255 255 255 
255 255 255 255 255 255 255 255 255 255 255 255 255 255 255 
255 255 255 255 255 255 255 255 255 237 237 237 243 243 243 
232 232 232 235 235 235 245 245 245 252 252 252 254 254 254 
255 255 255 255 255 255 255 255 255 255 255 255 255 255 255 
255 255 255 255 255 255 255 255 255 255 255 255 255 255 255 
255 255 255 255 255 255 255 255 255 255 255 255 255 255 255 
255 255 255 255 255 255 255 255 255 255 255 255 255 255 255 
255 255 255 255 255 255 255 255 255 255 255 255 255 255 255 
255 255 255 255 255 255 255 255 255 255 255 255 255 255 255 
255 255 255 255 255 255 255 255 255 255 255 255 255 255 255 
255 255 255 255 255 255 255 255 255 255 255 255 255 255 255 
255 255 255 255 255 255 255 255 255 255 255 255 255 255 255 
255 255 255 255 255 255 255 255 255 255 255 255 255 255 255 
255 255 255 255 255 255 255 255 255 255 255 255 255 255 255 
255 255 255 255 255 255 255 255 255 255 255 255 255 255 255 
255 255 255 255 255 255 255 255 255 255 255 255 255 255 255 
255 255 255 255 255 255 255 255 255 255 255 255 255 255 255 
255 255 255 255 255 255 255 255 255 255 255 255 255 255 255 
255 255 255 255 255 255 255 255 255 255 255 255 255 255 255 
255 255 255 255 255 255 255 255 255 255 255 255 255 255 255 
255 255 255 255 255 255 255 255 255 255 255 255 255 255 255 
255 255 255 255 255 255 255 255 255 255 255 255 255 255 255 
255 255 255 255 255 255 255 255 255 255 255 255 255 255 255 
255 255 255 255 255 255 255 255 255 255 255 255 255 255 255 
255 255 255 255 255 255 255 255 255 255 255 255 255 255 255 
255 255 255 255 255 255 255 255 255 255 255 255 255 255 255 
255 255 255 255 255 255 255 255 255 255 255 255 255 255 255 
255 255 255 255 255 255 255 255 255 255 255 255 255 255 255 
255 255 255 255 255 255 255 255 255 255 255 255 255 255 255 
255 255 255 255 255 255 255 255 255 255 255 255 255 255 255 
255 255 255 255 255 255 255 255 255 255 255 255 255 255 255 
255 255 255 255 255 255 255 255 255 255 255 255 255 255 255 
255 255 255 255 255 255 255 255 255 255 255 255 255 255 255 
255 255 255 255 255 255 255 255 255 255 255 255 255 255 255 
255 255 255 255 255 255 255 255 255 255 255 255 255 255 255 
255 255 255 255 255 255 255 255 255 255 255 255 255 255 255 
255 255 255 255 255 255 255 255 255 255 255 255 255 255 255 
255 255 255 255 255 255 255 255 255 255 255 255 255 255 255 
255 255 255 255 255 255 255 255 255 255 255 255 255 255 255 
255 255 255 255 255 255 255 255 255 255 255 255 255 255 255 
255 255 255 255 255 255 255 255 255 255 255 255 255 255 255 
255 255 255 255 255 255 255 255 255 255 255 255 255 255 255 
255 255 255 255 255 255 255 255 255 255 255 255 255 255 255 
255 255 255 255 255 255 255 255 255 255 255 255 255 255 255 
255 255 255 255 255 255 255 255 255 255 255 255 255 255 255 
255 255 255 255 255 255 255 255 255 255 255 255 255 255 255 
255 255 255 255 255 255 255 255 255 255 255 255 255 255 255 
255 255 255 255 255 255 255 255 255 255 255 255 255 255 255 
255 255 255 255 255 255 255 255 255 255 255 255 255 255 255 
255 255 255 255 255 255 255 255 255 255 255 255 255 255 255 
255 255 255 255 255 255 255 255 255 255 255 255 255 255 255 
255 255 255 255 255 255 255 255 255 255 255 255 255 255 255 
255 255 255 255 255 255 255 255 255 255 255 255 255 255 255 
255 255 255 255 255 255 255 255 255 255 255 255 255 255 255 
255 255 255 255 255 255 255 255 255 255 255 255 255 255 255 
255 255 255 255 255 255 255 255 255 255 255 255 255 255 255 
255 255 255 255 255 255 255 255 255 255 255 255 255 255 255 
255 255 255 255 255 255 255 255 255 255 255 255 255 255 255 
255 255 255 255 255 255 255 255 255 255 255 255 255 255 255 
255 255 255 255 255 255 255 255 255 255 255 255 255 255 255 
255 255 255 255 255 255 255 255 255 255 255 255 255 255 255 
255 255 255 255 255 255 255 255 255 255 255 255 255 255 255 
255 255 255 255 255 255 255 255 255 255 255 255 255 255 255 
255 255 255 255 255 255 255 255 255 255 255 255 255 255 255 
255 255 255 255 255 255 255 255 255 255 255 255 255 255 255 
255 255 255 255 255 255 255 255 255 255 255 255 255 255 255 
255 255 255 255 255 255 255 255 255 255 255 255 255 255 255 
255 255 255 255 255 255 255 255 255 255 255 255 255 255 255 
255 255 255 255 255 255 255 255 255 255 255 255 255 255 255 
255 255 255 255 255 255 255 255 255 255 255 255 255 255 255 
255 255 255 255 255 255 255 255 255 255 255 255 255 255 255 
255 255 255 255 255 255 255 255 255 255 255 255 255 255 255 
255 255 255 255 255 255 255 255 255 255 255 255 255 255 255 
255 255 255 255 255 255 255 255 255 255 255 255 255 255 255 
255 255 255 255 255 255 255 255 255 255 255 255 255 255 255 
255 255 255 255 255 255 255 255 255 255 255 255 255 255 255 
255 255 255 255 255 255 255 255 255 255 255 255 255 255 255 
255 255 255 255 255 255 255 255 255 255 255 255 255 255 255 
255 255 255 255 255 255 255 255 255 255 255 255 255 255 255 
255 255 255 255 255 255 255 255 255 255 255 255 255 255 255 
255 255 255 255 255 255 255 255 255 255 255 255 255 255 255 
255 255 255 255 255 255 255 255 255 255 255 255 255 255 255 
255 255 255 255 255 255 255 255 255 255 255 255 255 255 255 
255 255 255 255 255 255 255 255 255 255 255 255 255 255 255 
255 255 255 255 255 255 255 255 255 255 255 255 255 255 255 
255 255 255 255 255 255 255 255 255 255 255 255 255 255 255 
255 255 255 255 255 255 255 255 255 255 255 255 255 255 255 
255 255 255 255 255 255 255 255 255 255 255 255 255 255 255 
255 255 255 255 255 255 255 255 255 255 255 255 255 255 255 
255 255 255 255 255 255 255 255 255 255 255 255 255 255 255 
255 255 255 255 255 255 255 255 255 255 255 255 255 255 255 
255 255 255 255 255 255 255 255 255 255 255 255 255 255 255 
255 255 255 255 255 255 255 255 255 255 255 255 255 255 255 
255 255 255 255 255 255 255 255 255 255 255 255 255 255 255 
255 255 255 255 255 255 255 255 255 255 255 255 255 255 255 
255 255 255 255 255 255 255 255 255 255 255 255 255 255 255 
255 255 255 255 255 255 255 255 255 255 255 255 255 255 255 
255 255 255 255 255 255 255 255 255 255 255 255 255 255 255 
255 255 255 255 255 255 255 255 255 255 255 255 255 255 255 
